# xmcd
#
# Track frame offsets:
#	150
#	13938
#	26534
#	37500
#	51872
#	61151
#	74787
#	86193
#	97886
#	112369
#	125468
#	137910
#	149228
#	162064
#	175566
#	188566
#	201021
#	211875
#	225272
#	236282
#	248203
#	259990
#	272592
#	285576
#	300115
#
# Disc length: 4151 seconds
#
# Revision: 0
# Processed by: cddbd v1.5.2PL0 Copyright (c) Steve Scherf et al.
# Submitted via: audiograbber 1.83.01
#
DISCID=5c103519
DTITLE=Various Artist - 50 most influential blues songs of the 20th century
DYEAR=1900
DGENRE=Blues
TTITLE0=T-Bone Walker - (They Call It) Stormy Monday
TTITLE1=Big Joe Williams - Baby Please Don't Go
TTITLE2=Bobby Bland - St. James Infirmary
TTITLE3=Lowell Fulson - Reconsider Baby
TTITLE4=Memphis Slim - Steppin Out
TTITLE5=Leroy Carr - How Long How Long Blues
TTITLE6=Robert Johnson - Crossroads
TTITLE7=Sonny Boy Williamson - Don't Start Me Talkin
TTITLE8=Otis Rush - So Many Roads, So Many Trains
TTITLE9=Willie Mabon - Seventh Son
TTITLE10=Howlin' Wolf - Spoonful
TTITLE11=Elmore James - Rollin and Tumblin
TTITLE12=Skip James - I'm So Glad
TTITLE13=Robert Johnson - Dust My Broom
TTITLE14=Arthur Big Boy Crudup - That's Allright Mama
TTITLE15=Lazy Lester - I'm a Lover Not a Fighter
TTITLE16=Junior Parker - Mystery Train
TTITLE17=Otis Rush - I Can't Quit You Baby
TTITLE18=Howlin Wolf - Little Red Rooster
TTITLE19=Otis Rush - All Your Love
TTITLE20=Freddie King - Hideaway
TTITLE21=Wynonie Harris - Good Rocking Tonight
TTITLE22=Robert Johnson - Ramblin on My Mind
TTITLE23=Freddie King - The Stumble
TTITLE24=Arthur Big Boy Crudup - My Baby Left Me
EXTD=
EXTT0=
EXTT1=
EXTT2=
EXTT3=
EXTT4=
EXTT5=
EXTT6=
EXTT7=
EXTT8=
EXTT9=
EXTT10=
EXTT11=
EXTT12=
EXTT13=
EXTT14=
EXTT15=
EXTT16=
EXTT17=
EXTT18=
EXTT19=
EXTT20=
EXTT21=
EXTT22=
EXTT23=
EXTT24=
PLAYORDER=
